<svg xmlns="http://www.w3.org/2000/svg" width="1200" height="900" viewBox="0 0 1200 900">
  <rect width="1200" height="900" fill="#eef6ff"/>
  <rect x="70" y="70" width="1060" height="760" rx="28" fill="#ffffff" stroke="#cbd5e1"/>
  <text x="110" y="130" font-family="Segoe UI, Arial, sans-serif" font-size="34" font-weight="700" fill="#0f172a">Đề án A - FUSER 19K Vòng 1 chiều + 4 điểm dừng + OSS</text>
  <text x="110" y="170" font-family="Segoe UI, Arial, sans-serif" font-size="18" fill="#475569">Minh họa ý tưởng thực tế: làn chung 1 chiều, 4 hốc dừng tách khỏi làn chính, vùng cấm dừng tại cua K10</text>

  <rect x="120" y="220" width="150" height="82" rx="14" fill="#fcd34d" stroke="#d97706" stroke-width="4"/>
  <text x="195" y="268" text-anchor="middle" font-family="Segoe UI, Arial, sans-serif" font-size="24" font-weight="700" fill="#78350f">KHO</text>

  <path d="M300 235 H980 V720 H300 Z" fill="none" stroke="#93c5fd" stroke-width="42" stroke-linejoin="round"/>
  <path d="M300 235 H980 V720 H300 Z" fill="none" stroke="#1d4ed8" stroke-width="8" stroke-dasharray="10 10" stroke-linejoin="round"/>
  <text x="640" y="225" text-anchor="middle" font-family="Segoe UI, Arial, sans-serif" font-size="22" font-weight="700" fill="#1e40af">LÀN CHUNG AGV - CTU - AMM CHẠY 1 CHIỀU</text>

  <g fill="#1d4ed8">
    <polygon points="610,225 632,235 610,245"/>
    <polygon points="990,478 980,500 970,478"/>
    <polygon points="660,730 638,720 660,710"/>
    <polygon points="290,480 300,458 310,480"/>
  </g>

  <g fill="#d1fae5" stroke="#059669" stroke-width="3">
    <rect x="360" y="270" width="52" height="52" rx="8"/><rect x="426" y="270" width="52" height="52" rx="8"/><rect x="492" y="270" width="52" height="52" rx="8"/>
    <rect x="558" y="270" width="52" height="52" rx="8"/><rect x="624" y="270" width="52" height="52" rx="8"/><rect x="690" y="270" width="52" height="52" rx="8"/>
    <rect x="756" y="270" width="52" height="52" rx="8"/><rect x="822" y="270" width="52" height="52" rx="8"/><rect x="888" y="270" width="52" height="52" rx="8"/>
    <rect x="876" y="406" width="52" height="52" rx="8"/>
    <rect x="888" y="560" width="52" height="52" rx="8"/><rect x="822" y="560" width="52" height="52" rx="8"/><rect x="756" y="560" width="52" height="52" rx="8"/>
    <rect x="690" y="560" width="52" height="52" rx="8"/><rect x="624" y="560" width="52" height="52" rx="8"/><rect x="558" y="560" width="52" height="52" rx="8"/>
    <rect x="492" y="560" width="52" height="52" rx="8"/><rect x="426" y="560" width="52" height="52" rx="8"/><rect x="360" y="560" width="52" height="52" rx="8"/>
  </g>
  <g font-family="Segoe UI, Arial, sans-serif" font-size="18" font-weight="700" fill="#065f46" text-anchor="middle">
    <text x="386" y="302">K1</text><text x="452" y="302">K2</text><text x="518" y="302">K3</text><text x="584" y="302">K4</text><text x="650" y="302">K5</text>
    <text x="716" y="302">K6</text><text x="782" y="302">K7</text><text x="848" y="302">K8</text><text x="914" y="302">K9</text>
    <text x="902" y="438">K10</text>
    <text x="914" y="592">K11</text><text x="848" y="592">K12</text><text x="782" y="592">K13</text><text x="716" y="592">K14</text><text x="650" y="592">K15</text>
    <text x="584" y="592">K16</text><text x="518" y="592">K17</text><text x="452" y="592">K18</text><text x="386" y="592">K19</text>
  </g>

  <path d="M386 332 H914 V428" fill="none" stroke="#f97316" stroke-width="6" stroke-dasharray="10 10"/>
  <path d="M902 454 V560 H386" fill="none" stroke="#f97316" stroke-width="6" stroke-dasharray="10 10"/>

  <g fill="#f97316">
    <polygon points="520,322 538,332 520,342"/>
    <polygon points="712,322 730,332 712,342"/>
    <polygon points="902,486 892,504 882,486"/>
    <polygon points="700,560 682,550 700,540"/>
    <polygon points="500,560 482,550 500,540"/>
  </g>

  <g>
    <rect x="350" y="360" width="220" height="110" rx="18" fill="#fed7aa" stroke="#f97316" stroke-width="4"/>
    <rect x="366" y="382" width="86" height="28" rx="8" fill="#ede9fe" stroke="#a855f7" stroke-width="3"/>
    <rect x="460" y="382" width="66" height="28" rx="8" fill="#dbeafe" stroke="#60a5fa" stroke-width="3"/>
    <rect x="535" y="382" width="70" height="28" rx="8" fill="#d1d5db" stroke="#6b7280" stroke-width="3"/>
    <rect x="366" y="422" width="92" height="18" rx="6" fill="#fde68a" stroke="#eab308" stroke-width="2"/>
    <rect x="468" y="422" width="96" height="18" rx="6" fill="#bfdbfe" stroke="#3b82f6" stroke-width="2"/>
    <text x="378" y="374" font-family="Segoe UI, Arial, sans-serif" font-size="16" font-weight="700" fill="#9a3412">Điểm dừng A</text>
    <text x="410" y="400" text-anchor="middle" font-family="Segoe UI, Arial, sans-serif" font-size="16" font-weight="700" fill="#6b21a8">OSS</text>
    <text x="493" y="400" text-anchor="middle" font-family="Segoe UI, Arial, sans-serif" font-size="15" font-weight="700" fill="#1d4ed8">ĐỆM</text>
  </g>
  <g>
    <rect x="710" y="360" width="220" height="110" rx="18" fill="#fed7aa" stroke="#f97316" stroke-width="4"/>
    <rect x="726" y="382" width="86" height="28" rx="8" fill="#ede9fe" stroke="#a855f7" stroke-width="3"/>
    <rect x="820" y="382" width="66" height="28" rx="8" fill="#dbeafe" stroke="#60a5fa" stroke-width="3"/>
    <rect x="895" y="382" width="70" height="28" rx="8" fill="#d1d5db" stroke="#6b7280" stroke-width="3"/>
    <rect x="726" y="422" width="92" height="18" rx="6" fill="#fde68a" stroke="#eab308" stroke-width="2"/>
    <rect x="828" y="422" width="96" height="18" rx="6" fill="#bfdbfe" stroke="#3b82f6" stroke-width="2"/>
    <text x="738" y="374" font-family="Segoe UI, Arial, sans-serif" font-size="16" font-weight="700" fill="#9a3412">Điểm dừng B</text>
  </g>
  <g>
    <rect x="710" y="484" width="220" height="110" rx="18" fill="#fed7aa" stroke="#f97316" stroke-width="4"/>
    <rect x="726" y="506" width="86" height="28" rx="8" fill="#ede9fe" stroke="#a855f7" stroke-width="3"/>
    <rect x="820" y="506" width="66" height="28" rx="8" fill="#dbeafe" stroke="#60a5fa" stroke-width="3"/>
    <rect x="895" y="506" width="70" height="28" rx="8" fill="#d1d5db" stroke="#6b7280" stroke-width="3"/>
    <rect x="726" y="546" width="92" height="18" rx="6" fill="#fde68a" stroke="#eab308" stroke-width="2"/>
    <rect x="828" y="546" width="96" height="18" rx="6" fill="#bfdbfe" stroke="#3b82f6" stroke-width="2"/>
    <text x="738" y="498" font-family="Segoe UI, Arial, sans-serif" font-size="16" font-weight="700" fill="#9a3412">Điểm dừng C</text>
  </g>
  <g>
    <rect x="350" y="484" width="220" height="110" rx="18" fill="#fed7aa" stroke="#f97316" stroke-width="4"/>
    <rect x="366" y="506" width="86" height="28" rx="8" fill="#ede9fe" stroke="#a855f7" stroke-width="3"/>
    <rect x="460" y="506" width="66" height="28" rx="8" fill="#dbeafe" stroke="#60a5fa" stroke-width="3"/>
    <rect x="535" y="506" width="70" height="28" rx="8" fill="#d1d5db" stroke="#6b7280" stroke-width="3"/>
    <rect x="366" y="546" width="92" height="18" rx="6" fill="#fde68a" stroke="#eab308" stroke-width="2"/>
    <rect x="468" y="546" width="96" height="18" rx="6" fill="#bfdbfe" stroke="#3b82f6" stroke-width="2"/>
    <text x="378" y="498" font-family="Segoe UI, Arial, sans-serif" font-size="16" font-weight="700" fill="#9a3412">Điểm dừng D</text>
  </g>

  <rect x="952" y="340" width="108" height="286" rx="22" fill="none" stroke="#dc2626" stroke-width="4" stroke-dasharray="12 10"/>
  <text x="1006" y="418" text-anchor="middle" font-family="Segoe UI, Arial, sans-serif" font-size="24" font-weight="700" fill="#b91c1c">KHÔNG DỪNG</text>
  <text x="1006" y="452" text-anchor="middle" font-family="Segoe UI, Arial, sans-serif" font-size="24" font-weight="700" fill="#b91c1c">TẠI CUA</text>
  <text x="1006" y="490" text-anchor="middle" font-family="Segoe UI, Arial, sans-serif" font-size="18" fill="#b91c1c">Không cấp phát</text>
  <text x="1006" y="516" text-anchor="middle" font-family="Segoe UI, Arial, sans-serif" font-size="18" fill="#b91c1c">tại K10</text>

  <rect x="300" y="232" width="34" height="24" rx="6" fill="#fb923c" stroke="#ea580c" stroke-width="3"/>
  <rect x="950" y="694" width="38" height="26" rx="6" fill="#22c55e" stroke="#16a34a" stroke-width="3"/>
  <rect x="494" y="232" width="38" height="26" rx="6" fill="#3b82f6" stroke="#1d4ed8" stroke-width="3"/>
  <text x="317" y="224" font-family="Segoe UI, Arial, sans-serif" font-size="18" font-weight="700" fill="#9a3412">AMM</text>
  <text x="968" y="686" font-family="Segoe UI, Arial, sans-serif" font-size="18" font-weight="700" fill="#166534">AGV</text>
  <text x="513" y="224" font-family="Segoe UI, Arial, sans-serif" font-size="18" font-weight="700" fill="#1e40af">CTU</text>
</svg>
