<svg xmlns="http://www.w3.org/2000/svg" width="1200" height="900" viewBox="0 0 1200 900">
  <rect width="1200" height="900" fill="#eef6ff"/>
  <rect x="70" y="70" width="1060" height="760" rx="28" fill="#ffffff" stroke="#cbd5e1"/>
  <text x="110" y="130" font-family="Segoe UI, Arial, sans-serif" font-size="34" font-weight="700" fill="#0f172a">Đề án C - Hai chuyền chung đường giữa + Cụm Cellcon phân tán</text>
  <text x="110" y="170" font-family="Segoe UI, Arial, sans-serif" font-size="18" fill="#475569">Minh họa ý tưởng dài hạn: 2 chuyền dùng chung đường giữa, hub Cellcon phân tán thay vì gom về một đầu</text>

  <rect x="110" y="405" width="170" height="90" rx="16" fill="#fcd34d" stroke="#d97706" stroke-width="4"/>
  <text x="195" y="456" text-anchor="middle" font-family="Segoe UI, Arial, sans-serif" font-size="24" font-weight="700" fill="#78350f">KHO</text>

  <text x="108" y="255" font-family="Segoe UI, Arial, sans-serif" font-size="24" font-weight="700" fill="#166534">FUSER 19K</text>
  <text x="108" y="665" font-family="Segoe UI, Arial, sans-serif" font-size="24" font-weight="700" fill="#0f766e">UNIT KHÁC / CHUYỀN TƯƠNG LAI</text>

  <path d="M300 395 H1030 V505 H300 Z" fill="none" stroke="#93c5fd" stroke-width="44" stroke-linejoin="round"/>
  <path d="M300 395 H1030 V505 H300 Z" fill="none" stroke="#1d4ed8" stroke-width="8" stroke-dasharray="10 10" stroke-linejoin="round"/>
  <text x="665" y="455" text-anchor="middle" font-family="Segoe UI, Arial, sans-serif" font-size="24" font-weight="700" fill="#1e40af">ĐƯỜNG CHUNG AGV - CTU - AMM 1 CHIỀU</text>

  <g fill="#1d4ed8">
    <polygon points="625,384 647,395 625,406"/>
    <polygon points="1041,448 1031,470 1021,448"/>
    <polygon points="710,516 688,505 710,494"/>
    <polygon points="288,446 298,424 308,446"/>
  </g>

  <g fill="#d1fae5" stroke="#059669" stroke-width="3">
    <rect x="300" y="280" width="26" height="26" rx="6"/><rect x="334" y="280" width="26" height="26" rx="6"/><rect x="368" y="280" width="26" height="26" rx="6"/><rect x="402" y="280" width="26" height="26" rx="6"/><rect x="436" y="280" width="26" height="26" rx="6"/><rect x="470" y="280" width="26" height="26" rx="6"/><rect x="504" y="280" width="26" height="26" rx="6"/><rect x="538" y="280" width="26" height="26" rx="6"/><rect x="572" y="280" width="26" height="26" rx="6"/><rect x="606" y="280" width="26" height="26" rx="6"/><rect x="640" y="280" width="26" height="26" rx="6"/><rect x="674" y="280" width="26" height="26" rx="6"/><rect x="708" y="280" width="26" height="26" rx="6"/><rect x="742" y="280" width="26" height="26" rx="6"/><rect x="776" y="280" width="26" height="26" rx="6"/><rect x="810" y="280" width="26" height="26" rx="6"/><rect x="844" y="280" width="26" height="26" rx="6"/><rect x="878" y="280" width="26" height="26" rx="6"/><rect x="912" y="280" width="26" height="26" rx="6"/>
  </g>
  <g fill="#ccfbf1" stroke="#0f766e" stroke-width="3">
    <rect x="350" y="620" width="26" height="26" rx="6"/><rect x="388" y="620" width="26" height="26" rx="6"/><rect x="426" y="620" width="26" height="26" rx="6"/><rect x="464" y="620" width="26" height="26" rx="6"/><rect x="502" y="620" width="26" height="26" rx="6"/><rect x="540" y="620" width="26" height="26" rx="6"/><rect x="578" y="620" width="26" height="26" rx="6"/><rect x="616" y="620" width="26" height="26" rx="6"/><rect x="654" y="620" width="26" height="26" rx="6"/><rect x="692" y="620" width="26" height="26" rx="6"/><rect x="730" y="620" width="26" height="26" rx="6"/><rect x="768" y="620" width="26" height="26" rx="6"/><rect x="806" y="620" width="26" height="26" rx="6"/><rect x="844" y="620" width="26" height="26" rx="6"/><rect x="882" y="620" width="26" height="26" rx="6"/>
  </g>

  <g font-family="Segoe UI, Arial, sans-serif" font-size="14" font-weight="700" fill="#92400e" text-anchor="middle">
    <text x="425" y="356">Cụm Cellcon A</text><text x="595" y="356">Cụm Cellcon B</text><text x="765" y="356">Cụm Cellcon C</text><text x="935" y="356">Cụm Cellcon D</text>
    <text x="425" y="374">K1-K5 / U1-U4</text><text x="595" y="374">K6-K10 / U5-U8</text><text x="765" y="374">K11-K15 / U9-U12</text><text x="935" y="374">K16-K19 / U13-U15</text>
  </g>

  <rect x="360" y="335" width="130" height="150" rx="16" fill="#fef9c3" stroke="#f59e0b" stroke-width="4"/>
  <rect x="530" y="335" width="130" height="150" rx="16" fill="#fef9c3" stroke="#f59e0b" stroke-width="4"/>
  <rect x="700" y="335" width="130" height="150" rx="16" fill="#fef9c3" stroke="#f59e0b" stroke-width="4"/>
  <rect x="870" y="335" width="130" height="150" rx="16" fill="#fef9c3" stroke="#f59e0b" stroke-width="4"/>

  <g>
    <rect x="360" y="308" width="130" height="18" rx="8" fill="#fed7aa" stroke="#f97316" stroke-width="3"/>
    <rect x="530" y="308" width="130" height="18" rx="8" fill="#fed7aa" stroke="#f97316" stroke-width="3"/>
    <rect x="700" y="308" width="130" height="18" rx="8" fill="#fed7aa" stroke="#f97316" stroke-width="3"/>
    <rect x="870" y="308" width="130" height="18" rx="8" fill="#fed7aa" stroke="#f97316" stroke-width="3"/>
    <rect x="360" y="494" width="130" height="18" rx="8" fill="#fed7aa" stroke="#f97316" stroke-width="3"/>
    <rect x="530" y="494" width="130" height="18" rx="8" fill="#fed7aa" stroke="#f97316" stroke-width="3"/>
    <rect x="700" y="494" width="130" height="18" rx="8" fill="#fed7aa" stroke="#f97316" stroke-width="3"/>
    <rect x="870" y="494" width="130" height="18" rx="8" fill="#fed7aa" stroke="#f97316" stroke-width="3"/>
  </g>
  <g font-family="Segoe UI, Arial, sans-serif" font-size="12" font-weight="700" fill="#9a3412" text-anchor="middle">
    <text x="425" y="321">Dừng FUSER</text><text x="595" y="321">Dừng FUSER</text><text x="765" y="321">Dừng FUSER</text><text x="935" y="321">Dừng FUSER</text>
    <text x="425" y="507">Dừng UNIT</text><text x="595" y="507">Dừng UNIT</text><text x="765" y="507">Dừng UNIT</text><text x="935" y="507">Dừng UNIT</text>
  </g>

  <g>
    <rect x="372" y="388" width="106" height="18" rx="8" fill="#bfdbfe" stroke="#60a5fa" stroke-width="2"/>
    <rect x="542" y="388" width="106" height="18" rx="8" fill="#bfdbfe" stroke="#60a5fa" stroke-width="2"/>
    <rect x="712" y="388" width="106" height="18" rx="8" fill="#bfdbfe" stroke="#60a5fa" stroke-width="2"/>
    <rect x="882" y="388" width="106" height="18" rx="8" fill="#bfdbfe" stroke="#60a5fa" stroke-width="2"/>
    <rect x="372" y="414" width="42" height="16" rx="6" fill="#ede9fe" stroke="#a855f7" stroke-width="2"/>
    <rect x="418" y="414" width="42" height="16" rx="6" fill="#dbeafe" stroke="#60a5fa" stroke-width="2"/>
    <rect x="464" y="414" width="24" height="16" rx="6" fill="#d1d5db" stroke="#6b7280" stroke-width="2"/>
  </g>

  <g fill="#facc15" stroke="#ca8a04" stroke-width="2">
    <rect x="374" y="440" width="12" height="12" rx="4"/><rect x="394" y="440" width="12" height="12" rx="4"/><rect x="414" y="440" width="12" height="12" rx="4"/><rect x="434" y="440" width="12" height="12" rx="4"/><rect x="454" y="440" width="12" height="12" rx="4"/>
    <rect x="544" y="440" width="12" height="12" rx="4"/><rect x="564" y="440" width="12" height="12" rx="4"/><rect x="584" y="440" width="12" height="12" rx="4"/><rect x="604" y="440" width="12" height="12" rx="4"/><rect x="624" y="440" width="12" height="12" rx="4"/>
    <rect x="714" y="440" width="12" height="12" rx="4"/><rect x="734" y="440" width="12" height="12" rx="4"/><rect x="754" y="440" width="12" height="12" rx="4"/><rect x="774" y="440" width="12" height="12" rx="4"/><rect x="794" y="440" width="12" height="12" rx="4"/>
    <rect x="884" y="440" width="12" height="12" rx="4"/><rect x="904" y="440" width="12" height="12" rx="4"/><rect x="924" y="440" width="12" height="12" rx="4"/><rect x="944" y="440" width="12" height="12" rx="4"/><rect x="964" y="440" width="12" height="12" rx="4"/>
  </g>

  <text x="306" y="430" font-family="Segoe UI, Arial, sans-serif" font-size="16" font-weight="700" fill="#9a3412">AMM1: Oricon → Cellcon</text>
  <text x="815" y="536" font-family="Segoe UI, Arial, sans-serif" font-size="16" font-weight="700" fill="#9a3412">AMM2: Cellcon → Chuyền</text>
  <rect x="310" y="458" width="34" height="22" rx="6" fill="#fb923c" stroke="#ea580c" stroke-width="3"/>
  <rect x="845" y="546" width="34" height="22" rx="6" fill="#fb923c" stroke="#ea580c" stroke-width="3"/>
  <rect x="905" y="430" width="34" height="22" rx="6" fill="#22c55e" stroke="#16a34a" stroke-width="3"/>
  <rect x="955" y="430" width="34" height="22" rx="6" fill="#3b82f6" stroke="#1d4ed8" stroke-width="3"/>
  <text x="922" y="422" font-family="Segoe UI, Arial, sans-serif" font-size="15" font-weight="700" fill="#166534">AGV</text>
  <text x="972" y="422" font-family="Segoe UI, Arial, sans-serif" font-size="15" font-weight="700" fill="#1e40af">CTU</text>

  <text x="930" y="240" font-family="Segoe UI, Arial, sans-serif" font-size="18" font-weight="700" fill="#b91c1c">Không dừng trên làn chính</text>
  <text x="964" y="264" font-family="Segoe UI, Arial, sans-serif" font-size="18" font-weight="700" fill="#b91c1c">Chỉ dùng hốc dừng</text>
  <text x="966" y="288" font-family="Segoe UI, Arial, sans-serif" font-size="18" font-weight="700" fill="#b91c1c">Đệm 1-2 chu kỳ</text>
</svg>
